<svg width="20" height="20" viewBox="0 0 20 20" fill="none" xmlns="http://www.w3.org/2000/svg">
<path d="M19.9583 2.08334L16.8367 18.0217C16.8367 18.0217 16.7025 18.75 15.7992 18.75C15.3192 18.75 15.0717 18.5217 15.0717 18.5217L8.31 12.9108L5.00167 11.2433L0.755833 10.1142C0.755833 10.1142 0 9.89584 0 9.27084C0 8.75 0.7775 8.50167 0.7775 8.50167L18.5408 1.445C18.54 1.44417 19.0833 1.24917 19.4792 1.25C19.7225 1.25 20 1.35417 20 1.66667C20 1.875 19.9583 2.08334 19.9583 2.08334Z" fill="white"/>
<path d="M10.8333 15.0042L7.97831 17.8158C7.97831 17.8158 7.85415 17.9117 7.68831 17.9158C7.63081 17.9175 7.56915 17.9083 7.50581 17.88L8.30915 12.9092L10.8333 15.0042Z" fill="#B0BEC5"/>
<path d="M16.5808 4.74668C16.44 4.56335 16.18 4.53001 15.9967 4.66918L5 11.25C5 11.25 6.755 16.16 7.0225 17.01C7.29083 17.8608 7.50583 17.8808 7.50583 17.8808L8.30917 12.91L16.5025 5.33001C16.6858 5.19085 16.72 4.93001 16.5808 4.74668Z" fill="#CFD8DC"/>
</svg>
