<svg width="107" height="107" viewBox="0 0 107 107" fill="none" xmlns="http://www.w3.org/2000/svg">
<path d="M52.0623 1.41421C52.8434 0.633166 54.1097 0.633165 54.8908 1.41421L77.539 24.0625C78.3201 24.8435 78.3201 26.1098 77.539 26.8909L54.8908 49.5391C54.1097 50.3202 52.8434 50.3202 52.0623 49.5391L29.4141 26.8909C28.6331 26.1098 28.6331 24.8435 29.4141 24.0625L52.0623 1.41421Z" fill="#47C9FF"/>
<path d="M80.1095 28.8909C80.8905 28.1099 82.1568 28.1099 82.9379 28.8909L105.586 51.5392C106.367 52.3202 106.367 53.5865 105.586 54.3676L82.9379 77.0158C82.1568 77.7969 80.8905 77.7969 80.1095 77.0158L57.4612 54.3676C56.6802 53.5865 56.6802 52.3202 57.4612 51.5392L80.1095 28.8909Z" fill="#47C9FF"/>
<path d="M24.0623 29.4142C24.8434 28.6332 26.1097 28.6332 26.8908 29.4142L49.539 52.0625C50.3201 52.8435 50.3201 54.1098 49.539 54.8909L26.8908 77.5391C26.1097 78.3202 24.8434 78.3202 24.0623 77.5391L1.4141 54.8909C0.633053 54.1098 0.633052 52.8435 1.4141 52.0625L24.0623 29.4142Z" fill="#47C9FF"/>
<path d="M52.0875 56.913C52.8685 56.132 54.1349 56.132 54.9159 56.913L77.5642 79.5613C78.3452 80.3423 78.3452 81.6087 77.5642 82.3897L54.9159 105.038C54.1349 105.819 52.8685 105.819 52.0875 105.038L29.4392 82.3897C28.6582 81.6087 28.6582 80.3423 29.4392 79.5613L52.0875 56.913Z" fill="#47C9FF"/>
</svg>
