<svg width="20" height="20" viewBox="0 0 20 20" fill="none" xmlns="http://www.w3.org/2000/svg">
<path d="M7.00518 10.5833C4.60051 11.6666 2.85676 13.9167 2.55209 16.6667C2.55209 17.5833 3.24618 18.3333 4.16668 18.3333H15.8333C16.7542 18.3333 17.4483 17.5833 17.4483 16.6667C17.1433 13.9167 15.3992 11.6666 12.995 10.5833C12.4542 11.6666 11.3192 12.5 10 12.5C8.68084 12.5 7.54559 11.6666 7.00518 10.5833Z" fill="white"/>
<path d="M14.1667 5.83334C14.1667 6.93841 13.7277 7.99821 12.9463 8.77962C12.1649 9.56102 11.1051 10 10 10C8.89494 10 7.83513 9.56102 7.05373 8.77962C6.27233 7.99821 5.83334 6.93841 5.83334 5.83334C5.83334 4.72827 6.27233 3.66846 7.05373 2.88706C7.83513 2.10566 8.89494 1.66667 10 1.66667C11.1051 1.66667 12.1649 2.10566 12.9463 2.88706C13.7277 3.66846 14.1667 4.72827 14.1667 5.83334Z" fill="white"/>
<path d="M10 9.16667C8.93584 9.16667 7.92143 9.39084 7.00518 9.79167C4.60051 10.8433 2.85676 13.1225 2.55209 15.8333C2.55209 16.7542 3.24618 17.5 4.16668 17.5H15.8333C16.7542 17.5 17.4483 16.7542 17.4483 15.8333C17.1433 13.1225 15.3992 10.8433 12.995 9.79167C12.0783 9.39084 11.0642 9.16667 10 9.16667Z" fill="white"/>
</svg>
