<svg width="16" height="18" viewBox="0 0 16 18" fill="none" xmlns="http://www.w3.org/2000/svg">
<path d="M13.125 0C11.6856 0 10.5 1.18562 10.5 2.625C10.5 2.79208 10.5191 2.95498 10.5496 3.11377L4.30664 6.75562C3.84872 6.36812 3.26557 6.125 2.625 6.125C1.18562 6.125 0 7.31062 0 8.75C0 10.1894 1.18562 11.375 2.625 11.375C3.26557 11.375 3.84872 11.1319 4.30664 10.7444L10.5496 14.3845C10.5189 14.5438 10.5 14.7073 10.5 14.875C10.5 16.3144 11.6856 17.5 13.125 17.5C14.5644 17.5 15.75 16.3144 15.75 14.875C15.75 13.4356 14.5644 12.25 13.125 12.25C12.484 12.25 11.9014 12.4944 11.4434 12.8823L5.20044 9.23877C5.23093 9.07998 5.25 8.91708 5.25 8.75C5.25 8.58292 5.23093 8.42002 5.20044 8.26123L11.4434 4.61938C11.9013 5.00688 12.4844 5.25 13.125 5.25C14.5644 5.25 15.75 4.06438 15.75 2.625C15.75 1.18562 14.5644 0 13.125 0ZM13.125 1.75C13.6186 1.75 14 2.13139 14 2.625C14 3.11861 13.6186 3.5 13.125 3.5C12.6314 3.5 12.25 3.11861 12.25 2.625C12.25 2.13139 12.6314 1.75 13.125 1.75ZM2.625 7.875C3.11861 7.875 3.5 8.25639 3.5 8.75C3.5 9.24361 3.11861 9.625 2.625 9.625C2.13139 9.625 1.75 9.24361 1.75 8.75C1.75 8.25639 2.13139 7.875 2.625 7.875ZM13.125 14C13.6186 14 14 14.3814 14 14.875C14 15.3686 13.6186 15.75 13.125 15.75C12.6314 15.75 12.25 15.3686 12.25 14.875C12.25 14.3814 12.6314 14 13.125 14Z" fill="white"/>
</svg>
